# xmcd CD database file
#
# Track frame offsets:
#	150
#	24250
#	41647
#	58042
#	87382
#	118230
#	140112
#	169552
#	197622
#	210627
#	232147
#
# Disc length: 3522 seconds
#
# Revision: 4
# Processed by: cddbd v1.4PL0 Copyright (c) Steve Scherf et al.
# Submitted via: CDex 1.50Beta7
#
DISCID=9d0dc00b
DTITLE=Buddy Guy - This Is Buddy Guy (Vanguard Collection) Disc 2
DYEAR=1968
DGENRE=Blues
TTITLE0=Watermelon Man
TTITLE1=I Got My Eyes On You
TTITLE2=The Things I Used To Do
TTITLE3=(You Give Me) Fever
TTITLE4=Slow Blues
TTITLE5=Knock On Wood
TTITLE6=Crazy 'Bout You
TTITLE7=I Had A Dream Last Knight
TTITLE8=24 Hours Of The Day
TTITLE9=You Were Wrong
TTITLE10=I'm Not The Best
EXTD=YEAR: 1968
EXTT0=
EXTT1=
EXTT2=
EXTT3=
EXTT4=
EXTT5=
EXTT6=
EXTT7=
EXTT8=
EXTT9=
EXTT10=
PLAYORDER=
